<svg xmlns="http://www.w3.org/2000/svg" xmlns:xlink="http://www.w3.org/1999/xlink" version="1.1" width="100" height="100" viewBox="0 0 860 1080" xml:space="preserve">
<g transform="matrix(1 0 0 1 540 540)" >
<g style="" vector-effect="non-scaling-stroke" >
<g transform="matrix(1 0 0 1 -104.29 0)" >
<path style="stroke: none; stroke-width: 1; stroke-dasharray: none; stroke-linecap: round; stroke-dashoffset: 0; stroke-linejoin: round; stroke-miterlimit: 10; fill: rgb(255,255,255); fill-rule: nonzero; opacity: 1;" vector-effect="non-scaling-stroke" transform=" translate(-1393.9, -335.11)" d="M 1579.57 92.7761 C 1595.97 121.984 1612.04 150.374 1627.68 178.997 C 1631.63 186.349 1637.17 192.727 1643.89 197.665 C 1668.28 215.777 1680.83 240.452 1679.97 270.579 C 1678.5 321.857 1679.22 373.196 1675.79 424.413 C 1673.98 451.309 1660.89 471.825 1639.35 487.11 C 1633.49 491.161 1628.58 496.43 1624.94 502.557 C 1610.5 526.828 1595.42 550.726 1581.17 575.108 C 1568 597.663 1548.98 607.941 1522.86 606.699 C 1494.26 605.336 1465.61 605.013 1436.98 604.145 C 1430.48 603.943 1424.64 605.427 1418.63 608.143 C 1390.32 620.955 1362.01 620.47 1335.07 604.811 C 1291.71 579.654 1248.67 553.954 1205.96 527.717 C 1181.13 512.441 1166.77 489.856 1165.14 460.083 C 1164.81 454.025 1162.88 448.513 1159.91 443.162 C 1145.79 417.78 1132.35 392.015 1117.8 366.896 C 1104.75 344.412 1104.01 322.826 1118.22 300.665 C 1129.6 282.916 1139.65 264.299 1151.42 246.823 C 1160.99 232.597 1166.44 217.817 1167.87 200.562 C 1170.18 172.626 1184.3 150.839 1208.59 136.765 C 1254.02 110.424 1299.98 84.9516 1347.14 61.8315 C 1373.03 49.1507 1399.65 50.5339 1425.3 63.4771 C 1431.65 66.7045 1438.7 68.3333 1445.82 68.2223 C 1474.47 68.2122 1503.12 68.4747 1531.78 68.7069 C 1551.28 68.8684 1567.36 76.0973 1579.57 92.7761 M 1430.03 420.648 C 1414.63 445.252 1399.36 469.917 1383.81 494.42 C 1375.05 508.211 1374.51 521.801 1382.98 535.895 C 1388.1 544.406 1393.2 552.998 1397.48 561.943 C 1404.47 576.532 1416.42 583.175 1431.77 583.75 C 1464.33 584.982 1496.92 585.598 1529.5 586.446 C 1544.02 586.82 1554.66 580.035 1562.06 568.011 C 1574.14 548.384 1586.02 528.615 1597.93 508.867 C 1623.38 466.615 1624.94 472.42 1597.03 421.879 C 1588.12 405.756 1574.86 399.082 1557 399.062 C 1527.58 399.032 1498.16 398.517 1468.74 398.285 C 1466.13 398.264 1463.05 397.265 1460.99 400.97 C 1465.08 414.237 1472.54 426.715 1475.03 440.87 C 1475.61 444.242 1477.31 448.321 1473.11 450.512 C 1469.1 452.612 1466.34 449.371 1463.82 447.009 C 1455.08 438.821 1447.53 429.583 1440.62 419.84 C 1437.32 415.186 1434.44 413.681 1430.03 420.648 M 1605.02 239.14 C 1619.83 220.664 1619.79 202.39 1607.25 182.107 C 1592.64 158.472 1580.13 133.544 1566.74 109.162 C 1559.16 95.3405 1547.69 88.7174 1531.79 88.6467 C 1500.79 88.5155 1469.8 87.6775 1438.79 87.4453 C 1422.63 87.3242 1409.43 93.0083 1401.21 108.031 C 1396.08 117.431 1390.28 126.487 1384.64 135.614 C 1376.79 148.305 1376.73 160.965 1384.12 173.858 C 1399.14 200.057 1414.06 226.317 1429.11 252.497 C 1430.8 255.435 1431.95 259.221 1436.8 259.695 C 1444.48 250.336 1451.97 240.583 1460.16 231.456 C 1464.14 226.994 1468.71 218.947 1475.18 222.642 C 1481.71 226.368 1476.62 234.142 1475.22 240.028 C 1472.59 251.063 1465.51 260.695 1464.22 272.76 C 1467.13 273.315 1469.4 274.082 1471.7 274.143 C 1500.3 274.94 1528.9 275.435 1557.49 276.455 C 1574.26 277.05 1586.71 270.781 1594.78 255.869 C 1597.6 250.639 1601.05 245.732 1605.02 239.14 M 1324.69 349.52 C 1307.23 346.633 1288.68 347.481 1271.18 335.345 C 1290.34 322.12 1311.72 326.713 1331.14 318.626 C 1313.81 288.621 1297.2 259.281 1279.95 230.326 C 1275.55 222.945 1267.67 218.735 1259.01 217.917 C 1245.56 216.632 1232.06 215.831 1218.55 215.515 C 1202.25 215.161 1189.54 221.522 1180.9 236.101 C 1165.68 261.765 1149.98 287.147 1134.28 312.508 C 1125.68 326.4 1125.75 340.161 1133.51 354.255 C 1148.28 381.101 1162.93 407.997 1177.72 434.823 C 1185.11 448.23 1196.8 454.712 1211.92 455.005 C 1224.25 455.237 1236.6 455.035 1248.92 455.247 C 1260.62 455.449 1270.5 450.825 1276.66 441.486 C 1294.61 414.257 1311.71 386.472 1329.09 358.869 C 1331.5 355.033 1332.44 351.338 1324.69 349.52 M 1448.27 301.574 C 1446.49 306.158 1441.91 309.863 1443.72 316.042 C 1445.69 316.375 1447.6 316.9 1449.53 317.001 C 1478.9 318.465 1508.29 319.616 1537.65 321.403 C 1553.89 322.392 1570.02 324.825 1585.86 328.642 C 1590.25 329.692 1596.65 330.095 1596.54 336.103 C 1596.44 341.958 1589.94 342.17 1585.65 343.604 C 1581.1 345.055 1576.43 346.056 1571.69 346.593 C 1532.63 351.429 1493.44 354.286 1454.06 353.953 C 1449.53 353.922 1444.48 352.297 1439.51 357.244 C 1445.51 364.291 1442.79 378.163 1457.66 378.294 C 1491.83 378.597 1526.01 378.607 1560.18 379.253 C 1584.97 379.718 1603.27 391.187 1614.74 413.469 C 1622.67 428.906 1632.73 443.263 1637.45 461.375 C 1647.14 453.965 1651.24 444.505 1654.23 434.802 C 1656.47 427.582 1657.55 420.056 1657.44 412.5 C 1656.64 362.787 1661.35 313.144 1659.72 263.421 C 1659.12 245.429 1651.76 230.548 1636.98 217.746 C 1631.14 237.565 1619.89 251.739 1611.04 267.207 C 1599.53 287.359 1582.09 297.091 1558.88 296.516 C 1527.08 295.728 1495.28 294.961 1463.49 294.194 C 1457.86 294.052 1452.12 293.669 1448.27 301.574 M 1250.88 135.836 C 1237.35 144.145 1222.14 149.718 1210 160.259 C 1198.14 170.557 1189.7 182.874 1188.26 200.885 C 1209.33 194.454 1229.23 197.867 1248.96 197.16 C 1272.75 196.292 1290.23 206.872 1301.92 227.297 C 1317.33 254.213 1332.63 281.19 1347.95 308.157 C 1355.09 320.716 1358.6 321.847 1372.91 315.396 C 1370.35 310.469 1367.89 305.532 1365.25 300.685 C 1346.6 266.46 1327.75 232.315 1314.01 195.726 C 1311.23 188.316 1303.89 177.503 1311.38 172.828 C 1320.4 167.205 1326.01 179.411 1331.2 185.59 C 1354.5 213.415 1373.45 244.289 1392.65 274.981 C 1397.61 282.926 1400.77 292.185 1410.41 300.564 C 1414.68 290.398 1426.39 286.521 1419.58 274.506 C 1402.32 244.077 1384.13 214.192 1366.82 183.803 C 1355.42 163.802 1356.01 143.671 1368.41 123.983 C 1378.61 107.759 1386.48 89.9794 1403.39 76.1478 C 1383.87 72.5031 1367.72 72.8665 1352.19 81.2867 C 1318.99 99.2881 1285.67 117.088 1250.88 135.836 M 1306.5 432.369 C 1304.38 435.731 1302.07 438.982 1300.16 442.465 C 1287.18 466.181 1267.28 476.822 1240.27 475.631 C 1222.55 474.854 1204.7 476.257 1186.37 470.038 C 1190.71 486.828 1198.71 499.761 1211.98 507.858 C 1257.81 535.822 1303.93 563.296 1350.35 590.272 C 1364.76 598.642 1380.88 598.178 1398.88 594.392 C 1381.91 579.732 1375.08 561.105 1365.29 544.386 C 1353 523.345 1354.56 502.911 1367.6 482.607 C 1383.74 457.509 1399.41 432.127 1415.23 406.836 C 1423.66 393.358 1422.12 387.058 1407.31 376.639 L 1400.49 387.583 C 1378.38 423 1356.96 458.932 1329.23 490.402 C 1325.11 495.076 1320.36 504.324 1313.6 500.306 C 1306.27 495.955 1311.92 487.1 1314.18 480.8 C 1324.87 450.734 1339.67 422.546 1354.73 394.509 C 1361.82 381.323 1369.08 368.218 1376.83 354.054 C 1367.2 352.489 1358.97 347.037 1352.46 357.779 C 1337.63 382.262 1322.46 406.543 1306.5 432.369 M 1415.1 321.645 C 1410.51 327.107 1405.6 328.51 1399.36 321.595 C 1402.68 331.994 1397.15 334.891 1388.78 336.345 C 1396.83 339.152 1400.67 342.877 1398.27 352.59 C 1405.89 346.693 1404.59 347.006 1408.51 347.239 C 1413.04 348.087 1415.09 351.196 1419.7 355.406 C 1417.61 345.946 1417.29 339.162 1428.61 336.194 C 1415.61 336.83 1416.97 328.046 1415.1 321.645 Z" stroke-linecap="round" />
</g>
</g>
</g>
</svg>