<svg xmlns="http://www.w3.org/2000/svg" xmlns:xlink="http://www.w3.org/1999/xlink" version="1.1" width="200" height="70" viewBox="0 0 1080 1080" xml:space="preserve">
<defs>
</defs>
<g transform="matrix(1 0 0 1 540 540)" id="894eb95c-2646-4474-a1e7-793497b7eeb3" >
<rect style="stroke: none; stroke-width: 1; stroke-dasharray: none; stroke-linecap: butt; stroke-dashoffset: 0; stroke-linejoin: miter; stroke-miterlimit: 4; fill: rgb(255,255,255); fill-rule: nonzero; opacity: 1; visibility: hidden;" vector-effect="non-scaling-stroke" x="-540" y="-540" rx="0" ry="0" width="1080" height="1080" />
</g>
<g transform="matrix(1 0 0 1 540 540)" id="ae511212-7ab4-44df-b620-fce88685e8fe" >
</g>
<g transform="matrix(1 0 0 1 540 540)" >
<g style="" vector-effect="non-scaling-stroke" >
<g transform="matrix(1 0 0 1 -104.29 0)" >
<path style="stroke: none; stroke-width: 1; stroke-dasharray: none; stroke-linecap: round; stroke-dashoffset: 0; stroke-linejoin: round; stroke-miterlimit: 10; fill: rgb(255,255,255); fill-rule: nonzero; opacity: 1;" vector-effect="non-scaling-stroke" transform=" translate(-1393.9, -335.11)" d="M 1579.57 92.7761 C 1595.97 121.984 1612.04 150.374 1627.68 178.997 C 1631.63 186.349 1637.17 192.727 1643.89 197.665 C 1668.28 215.777 1680.83 240.452 1679.97 270.579 C 1678.5 321.857 1679.22 373.196 1675.79 424.413 C 1673.98 451.309 1660.89 471.825 1639.35 487.11 C 1633.49 491.161 1628.58 496.43 1624.94 502.557 C 1610.5 526.828 1595.42 550.726 1581.17 575.108 C 1568 597.663 1548.98 607.941 1522.86 606.699 C 1494.26 605.336 1465.61 605.013 1436.98 604.145 C 1430.48 603.943 1424.64 605.427 1418.63 608.143 C 1390.32 620.955 1362.01 620.47 1335.07 604.811 C 1291.71 579.654 1248.67 553.954 1205.96 527.717 C 1181.13 512.441 1166.77 489.856 1165.14 460.083 C 1164.81 454.025 1162.88 448.513 1159.91 443.162 C 1145.79 417.78 1132.35 392.015 1117.8 366.896 C 1104.75 344.412 1104.01 322.826 1118.22 300.665 C 1129.6 282.916 1139.65 264.299 1151.42 246.823 C 1160.99 232.597 1166.44 217.817 1167.87 200.562 C 1170.18 172.626 1184.3 150.839 1208.59 136.765 C 1254.02 110.424 1299.98 84.9516 1347.14 61.8315 C 1373.03 49.1507 1399.65 50.5339 1425.3 63.4771 C 1431.65 66.7045 1438.7 68.3333 1445.82 68.2223 C 1474.47 68.2122 1503.12 68.4747 1531.78 68.7069 C 1551.28 68.8684 1567.36 76.0973 1579.57 92.7761 M 1430.03 420.648 C 1414.63 445.252 1399.36 469.917 1383.81 494.42 C 1375.05 508.211 1374.51 521.801 1382.98 535.895 C 1388.1 544.406 1393.2 552.998 1397.48 561.943 C 1404.47 576.532 1416.42 583.175 1431.77 583.75 C 1464.33 584.982 1496.92 585.598 1529.5 586.446 C 1544.02 586.82 1554.66 580.035 1562.06 568.011 C 1574.14 548.384 1586.02 528.615 1597.93 508.867 C 1623.38 466.615 1624.94 472.42 1597.03 421.879 C 1588.12 405.756 1574.86 399.082 1557 399.062 C 1527.58 399.032 1498.16 398.517 1468.74 398.285 C 1466.13 398.264 1463.05 397.265 1460.99 400.97 C 1465.08 414.237 1472.54 426.715 1475.03 440.87 C 1475.61 444.242 1477.31 448.321 1473.11 450.512 C 1469.1 452.612 1466.34 449.371 1463.82 447.009 C 1455.08 438.821 1447.53 429.583 1440.62 419.84 C 1437.32 415.186 1434.44 413.681 1430.03 420.648 M 1605.02 239.14 C 1619.83 220.664 1619.79 202.39 1607.25 182.107 C 1592.64 158.472 1580.13 133.544 1566.74 109.162 C 1559.16 95.3405 1547.69 88.7174 1531.79 88.6467 C 1500.79 88.5155 1469.8 87.6775 1438.79 87.4453 C 1422.63 87.3242 1409.43 93.0083 1401.21 108.031 C 1396.08 117.431 1390.28 126.487 1384.64 135.614 C 1376.79 148.305 1376.73 160.965 1384.12 173.858 C 1399.14 200.057 1414.06 226.317 1429.11 252.497 C 1430.8 255.435 1431.95 259.221 1436.8 259.695 C 1444.48 250.336 1451.97 240.583 1460.16 231.456 C 1464.14 226.994 1468.71 218.947 1475.18 222.642 C 1481.71 226.368 1476.62 234.142 1475.22 240.028 C 1472.59 251.063 1465.51 260.695 1464.22 272.76 C 1467.13 273.315 1469.4 274.082 1471.7 274.143 C 1500.3 274.94 1528.9 275.435 1557.49 276.455 C 1574.26 277.05 1586.71 270.781 1594.78 255.869 C 1597.6 250.639 1601.05 245.732 1605.02 239.14 M 1324.69 349.52 C 1307.23 346.633 1288.68 347.481 1271.18 335.345 C 1290.34 322.12 1311.72 326.713 1331.14 318.626 C 1313.81 288.621 1297.2 259.281 1279.95 230.326 C 1275.55 222.945 1267.67 218.735 1259.01 217.917 C 1245.56 216.632 1232.06 215.831 1218.55 215.515 C 1202.25 215.161 1189.54 221.522 1180.9 236.101 C 1165.68 261.765 1149.98 287.147 1134.28 312.508 C 1125.68 326.4 1125.75 340.161 1133.51 354.255 C 1148.28 381.101 1162.93 407.997 1177.72 434.823 C 1185.11 448.23 1196.8 454.712 1211.92 455.005 C 1224.25 455.237 1236.6 455.035 1248.92 455.247 C 1260.62 455.449 1270.5 450.825 1276.66 441.486 C 1294.61 414.257 1311.71 386.472 1329.09 358.869 C 1331.5 355.033 1332.44 351.338 1324.69 349.52 M 1448.27 301.574 C 1446.49 306.158 1441.91 309.863 1443.72 316.042 C 1445.69 316.375 1447.6 316.9 1449.53 317.001 C 1478.9 318.465 1508.29 319.616 1537.65 321.403 C 1553.89 322.392 1570.02 324.825 1585.86 328.642 C 1590.25 329.692 1596.65 330.095 1596.54 336.103 C 1596.44 341.958 1589.94 342.17 1585.65 343.604 C 1581.1 345.055 1576.43 346.056 1571.69 346.593 C 1532.63 351.429 1493.44 354.286 1454.06 353.953 C 1449.53 353.922 1444.48 352.297 1439.51 357.244 C 1445.51 364.291 1442.79 378.163 1457.66 378.294 C 1491.83 378.597 1526.01 378.607 1560.18 379.253 C 1584.97 379.718 1603.27 391.187 1614.74 413.469 C 1622.67 428.906 1632.73 443.263 1637.45 461.375 C 1647.14 453.965 1651.24 444.505 1654.23 434.802 C 1656.47 427.582 1657.55 420.056 1657.44 412.5 C 1656.64 362.787 1661.35 313.144 1659.72 263.421 C 1659.12 245.429 1651.76 230.548 1636.98 217.746 C 1631.14 237.565 1619.89 251.739 1611.04 267.207 C 1599.53 287.359 1582.09 297.091 1558.88 296.516 C 1527.08 295.728 1495.28 294.961 1463.49 294.194 C 1457.86 294.052 1452.12 293.669 1448.27 301.574 M 1250.88 135.836 C 1237.35 144.145 1222.14 149.718 1210 160.259 C 1198.14 170.557 1189.7 182.874 1188.26 200.885 C 1209.33 194.454 1229.23 197.867 1248.96 197.16 C 1272.75 196.292 1290.23 206.872 1301.92 227.297 C 1317.33 254.213 1332.63 281.19 1347.95 308.157 C 1355.09 320.716 1358.6 321.847 1372.91 315.396 C 1370.35 310.469 1367.89 305.532 1365.25 300.685 C 1346.6 266.46 1327.75 232.315 1314.01 195.726 C 1311.23 188.316 1303.89 177.503 1311.38 172.828 C 1320.4 167.205 1326.01 179.411 1331.2 185.59 C 1354.5 213.415 1373.45 244.289 1392.65 274.981 C 1397.61 282.926 1400.77 292.185 1410.41 300.564 C 1414.68 290.398 1426.39 286.521 1419.58 274.506 C 1402.32 244.077 1384.13 214.192 1366.82 183.803 C 1355.42 163.802 1356.01 143.671 1368.41 123.983 C 1378.61 107.759 1386.48 89.9794 1403.39 76.1478 C 1383.87 72.5031 1367.72 72.8665 1352.19 81.2867 C 1318.99 99.2881 1285.67 117.088 1250.88 135.836 M 1306.5 432.369 C 1304.38 435.731 1302.07 438.982 1300.16 442.465 C 1287.18 466.181 1267.28 476.822 1240.27 475.631 C 1222.55 474.854 1204.7 476.257 1186.37 470.038 C 1190.71 486.828 1198.71 499.761 1211.98 507.858 C 1257.81 535.822 1303.93 563.296 1350.35 590.272 C 1364.76 598.642 1380.88 598.178 1398.88 594.392 C 1381.91 579.732 1375.08 561.105 1365.29 544.386 C 1353 523.345 1354.56 502.911 1367.6 482.607 C 1383.74 457.509 1399.41 432.127 1415.23 406.836 C 1423.66 393.358 1422.12 387.058 1407.31 376.639 L 1400.49 387.583 C 1378.38 423 1356.96 458.932 1329.23 490.402 C 1325.11 495.076 1320.36 504.324 1313.6 500.306 C 1306.27 495.955 1311.92 487.1 1314.18 480.8 C 1324.87 450.734 1339.67 422.546 1354.73 394.509 C 1361.82 381.323 1369.08 368.218 1376.83 354.054 C 1367.2 352.489 1358.97 347.037 1352.46 357.779 C 1337.63 382.262 1322.46 406.543 1306.5 432.369 M 1415.1 321.645 C 1410.51 327.107 1405.6 328.51 1399.36 321.595 C 1402.68 331.994 1397.15 334.891 1388.78 336.345 C 1396.83 339.152 1400.67 342.877 1398.27 352.59 C 1405.89 346.693 1404.59 347.006 1408.51 347.239 C 1413.04 348.087 1415.09 351.196 1419.7 355.406 C 1417.61 345.946 1417.29 339.162 1428.61 336.194 C 1415.61 336.83 1416.97 328.046 1415.1 321.645 Z" stroke-linecap="round" />
</g>
<g transform="matrix(1 0 0 1 -1343.29 4.13)" >
<path style="stroke: none; stroke-width: 1; stroke-dasharray: none; stroke-linecap: round; stroke-dashoffset: 0; stroke-linejoin: round; stroke-miterlimit: 10; fill: rgb(255,255,255); fill-rule: nonzero; opacity: 1;" vector-effect="non-scaling-stroke" transform=" translate(-154.9, -339.23)" d="M 41.4913 220.733 L 114.728 220.733 L 114.728 303.663 L 194.753 303.663 L 194.753 220.733 L 268.311 220.733 L 268.311 457.734 L 194.762 457.734 L 194.762 361.863 L 114.737 361.863 L 114.737 457.734 L 41.5005 457.734 L 41.5005 220.733 L 41.4913 220.733 Z" stroke-linecap="round" />
</g>
<g transform="matrix(1 0 0 1 -1066.95 4.13)" >
<path style="stroke: none; stroke-width: 1; stroke-dasharray: none; stroke-linecap: round; stroke-dashoffset: 0; stroke-linejoin: round; stroke-miterlimit: 10; fill: rgb(255,255,255); fill-rule: nonzero; opacity: 1;" vector-effect="non-scaling-stroke" transform=" translate(-431.24, -339.23)" d="M 308.45 339.394 C 308.45 300.702 319.229 270.581 340.787 249.023 C 362.345 227.465 392.355 216.686 430.827 216.686 C 470.283 216.686 500.679 227.281 522.017 248.453 C 543.354 269.634 554.023 299.304 554.023 337.454 C 554.023 365.155 549.369 387.872 540.043 405.595 C 530.717 423.327 517.243 437.123 499.622 446.982 C 482 456.851 460.046 461.781 433.742 461.781 C 407.015 461.781 384.896 457.522 367.376 449.006 C 349.864 440.489 335.664 427.015 324.784 408.594 C 313.894 390.162 308.45 367.096 308.45 339.394 Z M 381.686 339.716 C 381.686 363.647 386.129 380.837 395.022 391.294 C 403.916 401.742 416.01 406.975 431.324 406.975 C 447.051 406.975 459.237 401.852 467.855 391.616 C 476.482 381.379 480.786 362.994 480.786 336.488 C 480.786 314.176 476.288 297.869 467.294 287.577 C 458.29 277.286 446.085 272.145 430.671 272.145 C 415.909 272.145 404.054 277.369 395.105 287.826 C 386.156 298.274 381.686 315.574 381.686 339.716 Z" stroke-linecap="round" />
</g>
<g transform="matrix(1 0 0 1 -790.43 4.13)" >
<path style="stroke: none; stroke-width: 1; stroke-dasharray: none; stroke-linecap: round; stroke-dashoffset: 0; stroke-linejoin: round; stroke-miterlimit: 10; fill: rgb(255,255,255); fill-rule: nonzero; opacity: 1;" vector-effect="non-scaling-stroke" transform=" translate(-707.76, -339.23)" d="M 584.973 339.394 C 584.973 300.702 595.752 270.581 617.31 249.023 C 638.868 227.465 668.888 216.686 707.359 216.686 C 746.806 216.686 777.203 227.281 798.54 248.453 C 819.877 269.634 830.555 299.304 830.555 337.454 C 830.555 365.155 825.892 387.872 816.566 405.595 C 807.24 423.327 793.776 437.123 776.154 446.982 C 758.532 456.851 736.57 461.781 710.275 461.781 C 683.539 461.781 661.42 457.522 643.908 449.006 C 626.388 440.489 612.187 427.015 601.307 408.594 C 590.418 390.162 584.973 367.096 584.973 339.394 Z M 658.21 339.716 C 658.21 363.647 662.661 380.837 671.555 391.294 C 680.439 401.742 692.543 406.975 707.847 406.975 C 723.583 406.975 735.76 401.852 744.378 391.616 C 753.005 381.379 757.318 362.994 757.318 336.488 C 757.318 314.176 752.812 297.869 743.817 287.577 C 734.813 277.286 722.608 272.145 707.203 272.145 C 692.432 272.145 680.577 277.369 671.629 287.826 C 662.689 298.274 658.21 315.574 658.21 339.716 Z" stroke-linecap="round" />
</g>
<g transform="matrix(1 0 0 1 -501.49 4.13)" >
<path style="stroke: none; stroke-width: 1; stroke-dasharray: none; stroke-linecap: round; stroke-dashoffset: 0; stroke-linejoin: round; stroke-miterlimit: 10; fill: rgb(255,255,255); fill-rule: nonzero; opacity: 1;" vector-effect="non-scaling-stroke" transform=" translate(-996.71, -339.23)" d="M 871.091 220.733 L 944.328 220.733 L 944.328 310.294 L 1021.12 220.733 L 1118.44 220.733 L 1032.11 310.129 L 1122.32 457.734 L 1032.11 457.734 L 982.156 360.253 L 944.328 399.856 L 944.328 457.734 L 871.091 457.734 L 871.091 220.733 Z" stroke-linecap="round" />
</g>
<g transform="matrix(1 0 0 1 330.36 4.13)" >
<path style="stroke: none; stroke-width: 1; stroke-dasharray: none; stroke-linecap: round; stroke-dashoffset: 0; stroke-linejoin: round; stroke-miterlimit: 10; fill: rgb(255,255,255); fill-rule: nonzero; opacity: 1;" vector-effect="non-scaling-stroke" transform=" translate(-1828.55, -339.23)" d="M 1727.99 220.733 L 1849.73 220.733 C 1876.24 220.733 1896.1 227.033 1909.31 239.642 C 1922.51 252.251 1929.11 270.204 1929.11 293.482 C 1929.11 317.404 1921.91 336.111 1907.53 349.575 C 1893.14 363.049 1871.17 369.791 1841.65 369.791 L 1801.55 369.791 L 1801.55 457.734 L 1727.99 457.734 L 1727.99 220.733 Z M 1801.55 321.772 L 1819.5 321.772 C 1833.61 321.772 1843.54 319.317 1849.25 314.415 C 1854.96 309.513 1857.81 303.231 1857.81 295.579 C 1857.81 288.148 1855.34 281.838 1850.38 276.67 C 1845.42 271.492 1836.1 268.907 1822.41 268.907 L 1801.55 268.907 C 1801.55 268.907 1801.55 321.772 1801.55 321.772 Z" stroke-linecap="round" />
</g>
<g transform="matrix(1 0 0 1 587.46 4.13)" >
<path style="stroke: none; stroke-width: 1; stroke-dasharray: none; stroke-linecap: round; stroke-dashoffset: 0; stroke-linejoin: round; stroke-miterlimit: 10; fill: rgb(255,255,255); fill-rule: nonzero; opacity: 1;" vector-effect="non-scaling-stroke" transform=" translate(-2085.65, -339.23)" d="M 1969.09 457.734 L 1969.09 220.733 L 2091.14 220.733 C 2113.78 220.733 2131.08 222.673 2143.04 226.554 C 2155.01 230.426 2164.65 237.628 2171.98 248.131 C 2179.31 258.643 2182.98 271.436 2182.98 286.529 C 2182.98 299.681 2180.17 311.021 2174.57 320.558 C 2168.94 330.117 2160.99 338.098 2151.45 343.763 C 2145.2 347.534 2136.63 350.661 2125.74 353.135 C 2134.47 356.05 2140.84 358.956 2144.82 361.863 C 2147.51 363.803 2151.42 367.961 2156.54 374.316 C 2161.66 380.671 2165.08 385.582 2166.81 389.031 L 2202.21 457.734 L 2119.43 457.734 L 2080.32 385.306 C 2075.35 375.934 2070.94 369.846 2067.06 367.041 C 2061.8 363.378 2055.52 361.454 2049.11 361.541 L 2042.65 361.541 L 2042.65 457.734 C 2042.65 457.734 1969.09 457.734 1969.09 457.734 Z M 2042.65 316.76 L 2073.52 316.76 C 2076.87 316.76 2083.34 315.684 2092.93 313.532 C 2097.68 312.622 2101.92 309.968 2104.81 306.091 C 2107.88 302.1 2109.42 297.52 2109.42 292.351 C 2109.42 284.699 2106.99 278.822 2102.14 274.729 C 2097.29 270.636 2088.18 268.585 2074.82 268.585 L 2042.65 268.585 C 2042.65 268.585 2042.65 316.76 2042.65 316.76 Z" stroke-linecap="round" />
</g>
<g transform="matrix(1 0 0 1 835.95 4.13)" >
<path style="stroke: none; stroke-width: 1; stroke-dasharray: none; stroke-linecap: round; stroke-dashoffset: 0; stroke-linejoin: round; stroke-miterlimit: 10; fill: rgb(255,255,255); fill-rule: nonzero; opacity: 1;" vector-effect="non-scaling-stroke" transform=" translate(-2334.14, -339.23)" d="M 2211.35 339.394 C 2211.35 300.702 2222.13 270.581 2243.69 249.023 C 2265.24 227.465 2295.26 216.686 2333.74 216.686 C 2373.19 216.686 2403.57 227.281 2424.92 248.453 C 2446.26 269.634 2456.93 299.304 2456.93 337.454 C 2456.93 365.155 2452.26 387.872 2442.95 405.595 C 2433.62 423.327 2420.15 437.123 2402.53 446.982 C 2384.9 456.851 2362.95 461.781 2336.65 461.781 C 2309.92 461.781 2287.8 457.522 2270.28 449.006 C 2252.77 440.489 2238.57 427.015 2227.68 408.594 C 2216.8 390.162 2211.35 367.096 2211.35 339.394 Z M 2284.59 339.716 C 2284.59 363.647 2289.03 380.837 2297.93 391.294 C 2306.82 401.742 2318.92 406.975 2334.22 406.975 C 2349.96 406.975 2362.14 401.852 2370.76 391.616 C 2379.39 381.379 2383.69 362.994 2383.69 336.488 C 2383.69 314.176 2379.19 297.869 2370.2 287.577 C 2361.19 277.286 2348.99 272.145 2333.58 272.145 C 2318.81 272.145 2306.96 277.369 2298.01 287.826 C 2289.06 298.274 2284.59 315.574 2284.59 339.716 Z" stroke-linecap="round" />
</g>
<g transform="matrix(1 0 0 1 1108.6 4.13)" >
<path style="stroke: none; stroke-width: 1; stroke-dasharray: none; stroke-linecap: round; stroke-dashoffset: 0; stroke-linejoin: round; stroke-miterlimit: 10; fill: rgb(255,255,255); fill-rule: nonzero; opacity: 1;" vector-effect="non-scaling-stroke" transform=" translate(-2606.8, -339.23)" d="M 2497.27 220.733 L 2634.36 220.733 C 2657.21 220.733 2674.75 226.389 2686.98 237.701 C 2699.22 249.023 2705.33 263.03 2705.33 279.741 C 2705.33 293.749 2700.96 305.769 2692.24 315.794 C 2686.41 322.471 2677.91 327.751 2666.7 331.632 C 2683.72 335.734 2696.26 342.76 2704.28 352.73 C 2712.31 362.7 2716.32 375.235 2716.32 390.319 C 2716.32 402.606 2713.47 413.652 2707.76 423.465 C 2702.15 433.168 2694.06 441.203 2684.32 446.743 C 2678.17 450.303 2668.9 452.887 2656.51 454.506 C 2640.01 456.658 2629.08 457.734 2623.69 457.734 L 2497.27 457.734 C 2497.27 457.734 2497.27 220.733 2497.27 220.733 Z M 2571.15 313.688 L 2603 313.688 C 2614.42 313.688 2622.37 311.72 2626.84 307.793 C 2631.31 303.856 2633.55 298.173 2633.55 290.732 C 2633.55 283.834 2631.31 278.445 2626.84 274.563 C 2622.37 270.682 2614.58 268.742 2603.48 268.742 L 2571.15 268.742 L 2571.15 313.688 Z M 2571.15 406.809 L 2608.5 406.809 C 2621.11 406.809 2630 404.574 2635.17 400.105 C 2640.35 395.626 2642.93 389.62 2642.93 382.078 C 2642.93 375.07 2640.36 369.441 2635.25 365.183 C 2630.13 360.925 2621.16 358.791 2608.33 358.791 L 2571.15 358.791 C 2571.15 358.791 2571.15 406.809 2571.15 406.809 Z" stroke-linecap="round" />
</g>
<g transform="matrix(1 0 0 1 1356.79 4.13)" >
<path style="stroke: none; stroke-width: 1; stroke-dasharray: none; stroke-linecap: round; stroke-dashoffset: 0; stroke-linejoin: round; stroke-miterlimit: 10; fill: rgb(255,255,255); fill-rule: nonzero; opacity: 1;" vector-effect="non-scaling-stroke" transform=" translate(-2854.98, -339.23)" d="M 2755.08 220.733 L 2951.34 220.733 L 2951.34 271.335 L 2828.47 271.335 L 2828.47 308.998 L 2942.45 308.998 L 2942.45 357.338 L 2828.47 357.338 L 2828.47 404.059 L 2954.89 404.059 L 2954.89 457.734 L 2755.08 457.734 L 2755.08 220.733 Z" stroke-linecap="round" />
</g>
</g>
</g>
</svg>
